<svg width="13" height="12" viewBox="0 0 13 12" fill="none" xmlns="http://www.w3.org/2000/svg">
<path d="M12.5 1.05C12.5 0.784784 12.3946 0.530429 12.2071 0.342893C12.0196 0.155357 11.7652 0.0500002 11.5 0.0500002L3.5 0C3.23478 0 2.98043 0.105357 2.79289 0.292893C2.60536 0.48043 2.5 0.734784 2.5 1C2.5 1.26522 2.60536 1.51957 2.79289 1.70711C2.98043 1.89464 3.23478 2 3.5 2H9.06L0.79 10.29C0.696272 10.383 0.621877 10.4936 0.571109 10.6154C0.52034 10.7373 0.494202 10.868 0.494202 11C0.494202 11.132 0.52034 11.2627 0.571109 11.3846C0.621877 11.5064 0.696272 11.617 0.79 11.71C0.882963 11.8037 0.993564 11.8781 1.11542 11.9289C1.23728 11.9797 1.36799 12.0058 1.5 12.0058C1.63201 12.0058 1.76272 11.9797 1.88458 11.9289C2.00644 11.8781 2.11704 11.8037 2.21 11.71L10.5 3.42V9C10.5 9.26522 10.6054 9.51957 10.7929 9.70711C10.9804 9.89464 11.2348 10 11.5 10C11.7652 10 12.0196 9.89464 12.2071 9.70711C12.3946 9.51957 12.5 9.26522 12.5 9V1.05Z" fill="#FAF8F5"/>
</svg>
